<?xml version="1.0" encoding="UTF-8"?>
<svg width="24" height="24" viewBox="0 0 48 48" fill="none" xmlns="http://www.w3.org/2000/svg">
<path d="M34.8284 20.8284C36 19.6569 36 17.7712 36 14C36 10.2288 36 8.34315 34.8284 7.17157M34.8284 20.8284C33.6569 22 31.7712 22 28 22H20C16.2288 22 14.3431 22 13.1716 20.8284M34.8284 20.8284C34.8284 20.8284 34.8284 20.8284 34.8284 20.8284ZM34.8284 7.17157C33.6569 6 31.7712 6 28 6L20 6C16.2288 6 14.3431 6 13.1716 7.17157M34.8284 7.17157C34.8284 7.17157 34.8284 7.17157 34.8284 7.17157ZM13.1716 7.17157C12 8.34315 12 10.2288 12 14C12 17.7712 12 19.6569 13.1716 20.8284M13.1716 7.17157C13.1716 7.17157 13.1716 7.17157 13.1716 7.17157ZM13.1716 20.8284C13.1716 20.8284 13.1716 20.8284 13.1716 20.8284Z" stroke="currentColor" stroke-width="1.5"/>
<path d="M26 14C26 15.1046 25.1046 16 24 16C22.8954 16 22 15.1046 22 14C22 12.8954 22.8954 12 24 12C25.1046 12 26 12.8954 26 14Z" stroke="currentColor" stroke-width="1.5"/>
<path d="M36 12C32.6863 12 30 9.31371 30 6" stroke="currentColor" stroke-width="1.5" stroke-linecap="round"/>
<path d="M36 16C32.6863 16 30 18.6863 30 22" stroke="currentColor" stroke-width="1.5" stroke-linecap="round"/>
<path d="M12 12C15.3137 12 18 9.31371 18 6" stroke="currentColor" stroke-width="1.5" stroke-linecap="round"/>
<path d="M12 16C15.3137 16 18 18.6863 18 22" stroke="currentColor" stroke-width="1.5" stroke-linecap="round"/>
<path d="M10 40.7768H14.5199C16.5416 40.7768 18.5851 40.9874 20.5527 41.3928C24.0331 42.1098 27.6977 42.1967 31.2139 41.6275C32.9476 41.3469 34.6521 40.9178 36.195 40.1731C37.5878 39.5008 39.2939 38.5532 40.4399 37.4918C41.5842 36.432 42.776 34.6974 43.6219 33.3415C44.3472 32.1788 43.9964 30.7524 42.8491 29.8861C41.5746 28.9238 39.6834 28.924 38.4092 29.8865L34.7949 32.6169C33.3941 33.675 31.8639 34.6491 30.0411 34.9398C29.822 34.9748 29.5923 35.0066 29.3527 35.0344M29.3527 35.0344C29.2806 35.0427 29.2075 35.0507 29.1336 35.0583M29.3527 35.0344C29.6443 34.9719 29.9339 34.7921 30.2055 34.555C31.4919 33.4322 31.5733 31.54 30.4571 30.2863C30.1981 29.9954 29.8951 29.7528 29.5581 29.5518C23.9635 26.2149 15.2588 28.7564 10 32.4858M29.3527 35.0344C29.2797 35.05 29.2066 35.0583 29.1336 35.0583M29.1336 35.0583C28.0869 35.1658 26.8623 35.1936 25.5035 35.0653" stroke="currentColor" stroke-width="1.5" stroke-linecap="round"/>
<rect x="4" y="28" width="6" height="16" rx="1.5" stroke="currentColor" stroke-width="1.5"/>
</svg>
